<svg xmlns="http://www.w3.org/2000/svg" width="120" height="37" viewBox="0 0 120 37" fill="none"><path d="M92.8499 13.1531C87.8496 13.1531 83.7969 17.1187 83.7969 22.0117C83.7969 26.9047 87.8496 30.8703 92.8499 30.8703C97.8502 30.8703 101.903 26.9047 101.903 22.0117C101.903 17.1187 97.8502 13.1531 92.8499 13.1531ZM92.8499 27.536C89.7247 27.536 87.1842 25.0501 87.1842 21.992C87.1842 18.9339 89.7247 16.4479 92.8499 16.4479C95.9751 16.4479 98.4954 18.9339 98.4954 21.992C98.4954 25.0698 95.9751 27.536 92.8499 27.536Z" fill="#091F68"></path><path d="M116.137 21.1831C114.303 20.6307 111.016 20.1374 109.403 19.6047C108.193 19.2101 107.649 18.8353 107.649 18.0264C107.649 16.7439 109.121 16.1126 111.298 16.1126C114.403 16.1126 117.206 17.0004 117.428 17.0793C118.214 17.3358 119.484 15.422 118.94 14.8893C118.557 14.5145 115.27 12.9361 110.996 13.1926C105.955 13.4885 104.1 16.152 104.302 18.5985C104.524 21.5185 107.125 22.288 108.919 22.8207C110.431 23.2745 111.823 23.3336 114.726 24.0439C115.815 24.3201 116.258 25.0304 116.137 25.8985C116.016 26.8258 115.109 27.7531 112.185 27.9307C108.838 28.128 105.592 26.668 105.35 26.6285C104.403 26.4904 103.132 28.4831 103.858 29.075C104.443 29.5682 107.629 30.8507 111.661 30.8507C111.903 30.8507 112.145 30.8309 112.407 30.8309C117.246 30.535 119.263 27.9504 119.464 25.9774C119.686 23.5507 118.738 21.9526 116.137 21.1831Z" fill="#091F68"></path><path d="M40.1243 27.1022V13.1533C39.6404 12.7981 39.0355 12.6008 38.3903 12.6008C37.7451 12.6008 37.1402 12.8179 36.6563 13.1533V15.0276C35.124 13.8635 33.1884 13.1533 31.0915 13.1533C26.0911 13.1533 22.0586 17.1189 22.0586 22.0119C22.0586 26.9049 26.1113 30.8705 31.1116 30.8705C33.4102 30.8705 35.5272 30.0221 37.1201 28.6213L39.4186 30.8705C40.0033 30.8113 40.5477 30.5548 40.9711 30.1405C41.3946 29.7262 41.6567 29.1738 41.7172 28.6213L40.1243 27.1022ZM31.0915 27.4573C28.0267 27.4573 25.5266 25.0108 25.5266 22.0119C25.5266 18.9933 28.0267 16.5665 31.0915 16.5665C34.1562 16.5665 36.6563 18.9933 36.6563 22.0119V22.0316C36.6563 25.0305 34.1562 27.4573 31.0915 27.4573Z" fill="#091F68"></path><path d="M18.5908 27.1021V6.68183C18.1069 6.32669 17.502 6.12939 16.8568 6.12939C16.2116 6.12939 15.6067 6.32669 15.1228 6.68183V15.0275C13.5904 13.8634 11.6548 13.1532 9.55791 13.1532C4.55757 13.1532 0.504883 17.1188 0.504883 22.0118C0.504883 26.9048 4.55757 30.8704 9.55791 30.8704C11.8564 30.8704 13.9735 30.0221 15.5664 28.6212L17.8649 30.8704C18.4496 30.8112 18.994 30.5548 19.4174 30.1404C19.8408 29.7261 20.103 29.1737 20.1635 28.6212L18.5908 27.1021ZM9.55791 27.4572C6.49319 27.4572 3.99302 25.0107 3.99302 22.0118C3.99302 18.9932 6.49319 16.5664 9.55791 16.5664C12.6226 16.5664 15.1228 18.9932 15.1228 22.0118C15.1228 25.0107 12.6226 27.4572 9.55791 27.4572Z" fill="#091F68"></path><path d="M82.627 14.8696C82.627 14.2383 82.4254 13.6464 82.0625 13.1532H74.2192V6.68183H74.1991C73.7152 6.32669 73.1103 6.12939 72.4651 6.12939C71.8199 6.12939 71.215 6.32669 70.7311 6.68183H70.7109V30.2983C71.215 30.6534 71.8199 30.8704 72.4852 30.8704C73.1506 30.8704 73.7555 30.6534 74.2394 30.2983V16.5664H82.0827C82.4254 16.0929 82.627 15.501 82.627 14.8696Z" fill="#091F68"></path><path d="M54.9845 6.68183C54.5006 6.32669 53.8957 6.12939 53.2505 6.12939C52.6053 6.12939 52.0004 6.32669 51.5165 6.68183H51.4963V13.1532H43.6329C43.27 13.6267 43.0684 14.2186 43.0684 14.8499C43.0684 15.4813 43.27 16.0732 43.6329 16.5467H51.4963V30.2785C51.9802 30.6337 52.6053 30.8507 53.2505 30.8507C53.8957 30.8507 54.5207 30.6337 55.0046 30.2785V6.68183H54.9845Z" fill="#091F68"></path><path d="M68.6139 11.4563H58.956C58.956 11.4563 58.4318 11.7917 58.1899 12.7387C58.0286 13.3898 58.1899 14.0212 58.1899 14.0212H67.8478C67.8478 14.0212 68.372 13.6858 68.6139 12.7387C68.7752 12.0876 68.6139 11.4563 68.6139 11.4563Z" fill="#99DB07"></path><path d="M67.5251 15.718H57.8672C57.8672 15.718 57.3429 16.0534 57.101 17.0004C56.9397 17.6515 57.101 18.2829 57.101 18.2829H66.7589C66.7589 18.2829 67.2831 17.9475 67.5251 17.0004C67.7065 16.3494 67.5251 15.718 67.5251 15.718Z" fill="#99DB07"></path></svg>