<svg id="Camada_1" data-name="Camada 1" xmlns="http://www.w3.org/2000/svg" viewBox="0 0 300 70"><defs></defs><path d="M115.66,53.57l-7.42-12.46H84.83l4.08-7h15.18l-11-18.52-22.46,38H60.73L89.18,6.19c1-1.7,2.32-2.79,4.22-2.79s3.14,1.09,4.16,2.79l28.52,47.38Z"></path><path d="M136.38,17.35V53.57h-8.24V8.64c0-3.2,1.7-5.18,4.43-5.18a4.93,4.93,0,0,1,3.67,1.77l34.93,34.65V3.67h8.23V49c0,3.26-1.77,5.17-4.29,5.17a5.45,5.45,0,0,1-3.94-1.84Z"></path><path d="M201.59,53.57V12.72H182.8V4.08H229v8.64H210.24V53.57Z"></path><path d="M232.18,53.57V4.08h8.64V53.57Z"></path><path d="M246.84,53.57V44.92h37.1c4.63,0,7.21-2.58,7.21-6.47,0-4.22-2.58-6.39-7.21-6.39H261.2c-9.33,0-15.11-5.93-15.11-14.1,0-8,5.38-13.88,15.25-13.88h35.53v8.64H261.34c-3.95,0-6.27,2.32-6.27,6.06s2.39,6,6.2,6h22.67c10,0,15.38,4.7,15.38,14.3,0,8.3-5,14.5-15.38,14.5Z"></path><path class="cls-1" d="M-.22,3.73H13l28.23,47.9L69.42,3.73H81.91L46.06,63.27c-1.28,2.14-3,3.51-5.22,3.51-2.39,0-4-1.37-5.3-3.51Z"></path></svg>